<mxfile host="app.diagrams.net" agent="Mozilla/5.0 (Windows NT 10.0; Win64; x64) AppleWebKit/537.36 (KHTML, like Gecko) Chrome/109.0.0.0 Safari/537.36" version="26.0.11" pages="3">
  <diagram name="Page-1" id="c37626ed-c26b-45fb-9056-f9ebc6bb27b6">
    <mxGraphModel dx="1408" dy="748" grid="1" gridSize="10" guides="1" tooltips="1" connect="1" arrows="1" fold="1" page="1" pageScale="1" pageWidth="1100" pageHeight="850" background="none" math="0" shadow="0">
      <root>
        <mxCell id="0" />
        <mxCell id="1" parent="0" />
        <mxCell id="1c7a67bf8fd3230f-83" value="Group 1" style="whiteSpace=wrap;html=1;rounded=0;shadow=0;comic=0;strokeWidth=1;fontFamily=Verdana;fontSize=14;fillColor=#f5f5f5;strokeColor=none;verticalAlign=top;fontStyle=1" parent="1" vertex="1">
          <mxGeometry x="460" y="246" width="1240" height="440" as="geometry" />
        </mxCell>
        <mxCell id="1c7a67bf8fd3230f-82" value="Group 4" style="whiteSpace=wrap;html=1;rounded=0;shadow=0;comic=0;strokeWidth=1;fontFamily=Verdana;fontSize=14;fillColor=#f5f5f5;strokeColor=none;fontStyle=1;verticalAlign=top;" parent="1" vertex="1">
          <mxGeometry x="1370" y="839" width="370" height="587" as="geometry" />
        </mxCell>
        <mxCell id="1c7a67bf8fd3230f-81" value="Group 3" style="whiteSpace=wrap;html=1;rounded=0;shadow=0;comic=0;strokeWidth=1;fontFamily=Verdana;fontSize=14;fillColor=#f5f5f5;strokeColor=none;fontStyle=1;verticalAlign=top;" parent="1" vertex="1">
          <mxGeometry x="910" y="838.9999999999999" width="432" height="587" as="geometry" />
        </mxCell>
        <mxCell id="1c7a67bf8fd3230f-80" value="Group 2" style="whiteSpace=wrap;html=1;rounded=0;shadow=0;comic=0;strokeWidth=1;fontFamily=Verdana;fontSize=14;fillColor=#f5f5f5;strokeColor=none;fontStyle=1;verticalAlign=top;" parent="1" vertex="1">
          <mxGeometry x="506" y="839" width="384" height="587" as="geometry" />
        </mxCell>
        <mxCell id="1c7a67bf8fd3230f-37" style="edgeStyle=none;html=1;labelBackgroundColor=none;startFill=0;endArrow=none;endFill=0;strokeWidth=2;fontFamily=Verdana;fontSize=12;" parent="1" source="1c7a67bf8fd3230f-1" target="1c7a67bf8fd3230f-5" edge="1">
          <mxGeometry relative="1" as="geometry" />
        </mxCell>
        <mxCell id="1c7a67bf8fd3230f-1" value="Route&lt;div&gt;Switch&lt;/div&gt;&lt;div&gt;Processor&lt;/div&gt;" style="shape=mxgraph.cisco.misc.route_switch_processor;html=1;dashed=0;fillColor=#036897;strokeColor=#ffffff;strokeWidth=2;verticalLabelPosition=bottom;verticalAlign=top;rounded=0;shadow=0;comic=0;fontFamily=Verdana;fontSize=12;" parent="1" vertex="1">
          <mxGeometry x="710" y="306" width="64" height="86" as="geometry" />
        </mxCell>
        <mxCell id="1c7a67bf8fd3230f-38" style="edgeStyle=none;html=1;labelBackgroundColor=none;startFill=0;endArrow=none;endFill=0;strokeWidth=2;fontFamily=Verdana;fontSize=12;" parent="1" source="1c7a67bf8fd3230f-2" target="1c7a67bf8fd3230f-5" edge="1">
          <mxGeometry relative="1" as="geometry" />
        </mxCell>
        <mxCell id="1c7a67bf8fd3230f-2" value="Route&lt;div&gt;Switch&lt;/div&gt;&lt;div&gt;Processor&lt;/div&gt;" style="shape=mxgraph.cisco.misc.route_switch_processor;html=1;dashed=0;fillColor=#036897;strokeColor=#ffffff;strokeWidth=2;verticalLabelPosition=bottom;verticalAlign=top;rounded=0;shadow=0;comic=0;fontFamily=Verdana;fontSize=12;" parent="1" vertex="1">
          <mxGeometry x="908" y="306" width="64" height="86" as="geometry" />
        </mxCell>
        <mxCell id="1c7a67bf8fd3230f-39" style="edgeStyle=none;html=1;labelBackgroundColor=none;startFill=0;endArrow=none;endFill=0;strokeWidth=2;fontFamily=Verdana;fontSize=12;" parent="1" source="1c7a67bf8fd3230f-3" target="1c7a67bf8fd3230f-5" edge="1">
          <mxGeometry relative="1" as="geometry" />
        </mxCell>
        <mxCell id="1c7a67bf8fd3230f-3" value="Route&lt;div&gt;Switch&lt;/div&gt;&lt;div&gt;Processor&lt;/div&gt;" style="shape=mxgraph.cisco.misc.route_switch_processor;html=1;dashed=0;fillColor=#036897;strokeColor=#ffffff;strokeWidth=2;verticalLabelPosition=bottom;verticalAlign=top;rounded=0;shadow=0;comic=0;fontFamily=Verdana;fontSize=12;" parent="1" vertex="1">
          <mxGeometry x="1110" y="306" width="64" height="86" as="geometry" />
        </mxCell>
        <mxCell id="1c7a67bf8fd3230f-40" style="edgeStyle=none;html=1;labelBackgroundColor=none;startFill=0;endArrow=none;endFill=0;strokeWidth=2;fontFamily=Verdana;fontSize=12;" parent="1" source="1c7a67bf8fd3230f-4" target="1c7a67bf8fd3230f-5" edge="1">
          <mxGeometry relative="1" as="geometry" />
        </mxCell>
        <mxCell id="1c7a67bf8fd3230f-4" value="Route&lt;div&gt;Switch&lt;/div&gt;&lt;div&gt;Processor&lt;/div&gt;" style="shape=mxgraph.cisco.misc.route_switch_processor;html=1;dashed=0;fillColor=#036897;strokeColor=#ffffff;strokeWidth=2;verticalLabelPosition=bottom;verticalAlign=top;rounded=0;shadow=0;comic=0;fontFamily=Verdana;fontSize=12;" parent="1" vertex="1">
          <mxGeometry x="1340" y="306" width="64" height="86" as="geometry" />
        </mxCell>
        <mxCell id="1c7a67bf8fd3230f-41" style="edgeStyle=none;html=1;labelBackgroundColor=none;startFill=0;endArrow=none;endFill=0;strokeWidth=2;fontFamily=Verdana;fontSize=12;" parent="1" source="1c7a67bf8fd3230f-5" target="1c7a67bf8fd3230f-7" edge="1">
          <mxGeometry relative="1" as="geometry" />
        </mxCell>
        <mxCell id="1c7a67bf8fd3230f-45" style="edgeStyle=none;html=1;labelBackgroundColor=none;startFill=0;endArrow=none;endFill=0;strokeWidth=2;fontFamily=Verdana;fontSize=12;" parent="1" source="1c7a67bf8fd3230f-5" target="1c7a67bf8fd3230f-6" edge="1">
          <mxGeometry relative="1" as="geometry" />
        </mxCell>
        <mxCell id="1c7a67bf8fd3230f-49" style="edgeStyle=none;html=1;labelBackgroundColor=none;startFill=0;endArrow=none;endFill=0;strokeWidth=2;fontFamily=Verdana;fontSize=12;" parent="1" source="1c7a67bf8fd3230f-5" target="1c7a67bf8fd3230f-46" edge="1">
          <mxGeometry relative="1" as="geometry" />
        </mxCell>
        <mxCell id="1c7a67bf8fd3230f-50" style="edgeStyle=none;html=1;labelBackgroundColor=none;startFill=0;endArrow=none;endFill=0;strokeWidth=2;fontFamily=Verdana;fontSize=12;" parent="1" source="1c7a67bf8fd3230f-5" target="1c7a67bf8fd3230f-47" edge="1">
          <mxGeometry relative="1" as="geometry" />
        </mxCell>
        <mxCell id="1c7a67bf8fd3230f-5" value="Route&lt;div&gt;Switch&lt;/div&gt;&lt;div&gt;Processor&lt;/div&gt;" style="shape=mxgraph.cisco.misc.route_switch_processor;html=1;dashed=0;fillColor=#036897;strokeColor=#ffffff;strokeWidth=2;verticalLabelPosition=bottom;verticalAlign=top;rounded=0;shadow=0;comic=0;fontFamily=Verdana;fontSize=12;" parent="1" vertex="1">
          <mxGeometry x="1020" y="476" width="64" height="86" as="geometry" />
        </mxCell>
        <mxCell id="1c7a67bf8fd3230f-64" style="edgeStyle=none;html=1;labelBackgroundColor=none;startFill=0;endArrow=none;endFill=0;strokeWidth=2;fontFamily=Verdana;fontSize=12;" parent="1" source="1c7a67bf8fd3230f-6" target="1c7a67bf8fd3230f-9" edge="1">
          <mxGeometry relative="1" as="geometry" />
        </mxCell>
        <mxCell id="1c7a67bf8fd3230f-65" style="edgeStyle=none;html=1;labelBackgroundColor=none;startFill=0;endArrow=none;endFill=0;strokeWidth=2;fontFamily=Verdana;fontSize=12;" parent="1" source="1c7a67bf8fd3230f-6" target="1c7a67bf8fd3230f-8" edge="1">
          <mxGeometry relative="1" as="geometry" />
        </mxCell>
        <mxCell id="1c7a67bf8fd3230f-6" value="" style="shape=mxgraph.cisco.switches.content_switch;html=1;dashed=0;fillColor=#036897;strokeColor=#ffffff;strokeWidth=2;verticalLabelPosition=bottom;verticalAlign=top;rounded=0;shadow=0;comic=0;fontFamily=Verdana;fontSize=12;" parent="1" vertex="1">
          <mxGeometry x="710" y="476" width="64" height="86" as="geometry" />
        </mxCell>
        <mxCell id="1c7a67bf8fd3230f-42" style="edgeStyle=none;html=1;labelBackgroundColor=none;startFill=0;endArrow=none;endFill=0;strokeWidth=2;fontFamily=Verdana;fontSize=12;" parent="1" source="1c7a67bf8fd3230f-7" target="1c7a67bf8fd3230f-10" edge="1">
          <mxGeometry relative="1" as="geometry" />
        </mxCell>
        <mxCell id="1c7a67bf8fd3230f-7" value="" style="shape=mxgraph.cisco.switches.content_switch;html=1;dashed=0;fillColor=#036897;strokeColor=#ffffff;strokeWidth=2;verticalLabelPosition=bottom;verticalAlign=top;rounded=0;shadow=0;comic=0;fontFamily=Verdana;fontSize=12;" parent="1" vertex="1">
          <mxGeometry x="1240" y="476" width="64" height="86" as="geometry" />
        </mxCell>
        <mxCell id="1c7a67bf8fd3230f-8" value="" style="shape=mxgraph.cisco.storage.cisco_file_engine;html=1;dashed=0;fillColor=#036897;strokeColor=#ffffff;strokeWidth=2;verticalLabelPosition=bottom;verticalAlign=top;rounded=0;shadow=0;comic=0;fontFamily=Verdana;fontSize=12;" parent="1" vertex="1">
          <mxGeometry x="500" y="572" width="90" height="64" as="geometry" />
        </mxCell>
        <mxCell id="1c7a67bf8fd3230f-9" value="" style="shape=mxgraph.cisco.misc.me1100;html=1;dashed=0;fillColor=#036897;strokeColor=#ffffff;strokeWidth=2;verticalLabelPosition=bottom;verticalAlign=top;rounded=0;shadow=0;comic=0;fontFamily=Verdana;fontSize=12;" parent="1" vertex="1">
          <mxGeometry x="500" y="471" width="91" height="48" as="geometry" />
        </mxCell>
        <mxCell id="1c7a67bf8fd3230f-43" style="edgeStyle=none;html=1;labelBackgroundColor=none;startFill=0;endArrow=none;endFill=0;strokeWidth=2;fontFamily=Verdana;fontSize=12;" parent="1" source="1c7a67bf8fd3230f-10" target="1c7a67bf8fd3230f-11" edge="1">
          <mxGeometry relative="1" as="geometry" />
        </mxCell>
        <mxCell id="1c7a67bf8fd3230f-44" style="edgeStyle=none;html=1;labelBackgroundColor=none;startFill=0;endArrow=none;endFill=0;strokeWidth=2;fontFamily=Verdana;fontSize=12;" parent="1" source="1c7a67bf8fd3230f-10" target="1c7a67bf8fd3230f-12" edge="1">
          <mxGeometry relative="1" as="geometry" />
        </mxCell>
        <mxCell id="1c7a67bf8fd3230f-51" style="edgeStyle=none;html=1;labelBackgroundColor=none;startFill=0;endArrow=none;endFill=0;strokeWidth=2;fontFamily=Verdana;fontSize=12;" parent="1" source="1c7a67bf8fd3230f-10" target="1c7a67bf8fd3230f-48" edge="1">
          <mxGeometry relative="1" as="geometry" />
        </mxCell>
        <mxCell id="1c7a67bf8fd3230f-10" value="" style="shape=mxgraph.cisco.security.ios_firewall;html=1;dashed=0;fillColor=#036897;strokeColor=#ffffff;strokeWidth=2;verticalLabelPosition=bottom;verticalAlign=top;rounded=0;shadow=0;comic=0;fontFamily=Verdana;fontSize=12;" parent="1" vertex="1">
          <mxGeometry x="1372" y="486" width="40" height="66" as="geometry" />
        </mxCell>
        <mxCell id="1c7a67bf8fd3230f-11" value="" style="shape=mxgraph.cisco.servers.server_with_router;html=1;dashed=0;fillColor=#036897;strokeColor=#ffffff;strokeWidth=2;verticalLabelPosition=bottom;verticalAlign=top;rounded=0;shadow=0;comic=0;fontFamily=Verdana;fontSize=12;" parent="1" vertex="1">
          <mxGeometry x="1460" y="431" width="38" height="64" as="geometry" />
        </mxCell>
        <mxCell id="1c7a67bf8fd3230f-12" value="" style="shape=mxgraph.cisco.servers.server_with_router;html=1;dashed=0;fillColor=#036897;strokeColor=#ffffff;strokeWidth=2;verticalLabelPosition=bottom;verticalAlign=top;rounded=0;shadow=0;comic=0;fontFamily=Verdana;fontSize=12;" parent="1" vertex="1">
          <mxGeometry x="1511" y="530" width="38" height="64" as="geometry" />
        </mxCell>
        <mxCell id="1c7a67bf8fd3230f-56" style="edgeStyle=none;html=1;labelBackgroundColor=none;startFill=0;endArrow=none;endFill=0;strokeWidth=2;fontFamily=Verdana;fontSize=12;" parent="1" source="1c7a67bf8fd3230f-13" target="1c7a67bf8fd3230f-16" edge="1">
          <mxGeometry relative="1" as="geometry" />
        </mxCell>
        <mxCell id="1c7a67bf8fd3230f-61" style="edgeStyle=none;html=1;labelBackgroundColor=none;startFill=0;endArrow=none;endFill=0;strokeWidth=2;fontFamily=Verdana;fontSize=12;" parent="1" source="1c7a67bf8fd3230f-13" target="1c7a67bf8fd3230f-17" edge="1">
          <mxGeometry relative="1" as="geometry" />
        </mxCell>
        <mxCell id="1c7a67bf8fd3230f-62" style="edgeStyle=none;html=1;labelBackgroundColor=none;startFill=0;endArrow=none;endFill=0;strokeWidth=2;fontFamily=Verdana;fontSize=12;" parent="1" source="1c7a67bf8fd3230f-13" target="1c7a67bf8fd3230f-18" edge="1">
          <mxGeometry relative="1" as="geometry" />
        </mxCell>
        <mxCell id="1c7a67bf8fd3230f-13" value="LAN" style="ellipse;shape=cloud;whiteSpace=wrap;html=1;rounded=0;shadow=0;comic=0;strokeWidth=1;fontFamily=Verdana;fontSize=12;" parent="1" vertex="1">
          <mxGeometry x="830" y="696" width="120" height="80" as="geometry" />
        </mxCell>
        <mxCell id="1c7a67bf8fd3230f-57" style="edgeStyle=none;html=1;labelBackgroundColor=none;startFill=0;endArrow=none;endFill=0;strokeWidth=2;fontFamily=Verdana;fontSize=12;" parent="1" source="1c7a67bf8fd3230f-14" target="1c7a67bf8fd3230f-17" edge="1">
          <mxGeometry relative="1" as="geometry" />
        </mxCell>
        <mxCell id="1c7a67bf8fd3230f-63" style="edgeStyle=none;html=1;labelBackgroundColor=none;startFill=0;endArrow=none;endFill=0;strokeWidth=2;fontFamily=Verdana;fontSize=12;" parent="1" source="1c7a67bf8fd3230f-14" target="1c7a67bf8fd3230f-18" edge="1">
          <mxGeometry relative="1" as="geometry" />
        </mxCell>
        <mxCell id="1c7a67bf8fd3230f-14" value="Cloud" style="ellipse;shape=cloud;whiteSpace=wrap;html=1;rounded=0;shadow=0;comic=0;strokeWidth=1;fontFamily=Verdana;fontSize=12;" parent="1" vertex="1">
          <mxGeometry x="1114" y="696" width="120" height="80" as="geometry" />
        </mxCell>
        <mxCell id="1c7a67bf8fd3230f-15" value="Internet" style="ellipse;shape=cloud;whiteSpace=wrap;html=1;rounded=0;shadow=0;comic=0;strokeWidth=1;fontFamily=Verdana;fontSize=12;" parent="1" vertex="1">
          <mxGeometry x="1554" y="696" width="120" height="80" as="geometry" />
        </mxCell>
        <mxCell id="1c7a67bf8fd3230f-66" style="edgeStyle=none;html=1;labelBackgroundColor=none;startFill=0;endArrow=none;endFill=0;strokeWidth=2;fontFamily=Verdana;fontSize=12;" parent="1" source="1c7a67bf8fd3230f-16" target="1c7a67bf8fd3230f-21" edge="1">
          <mxGeometry relative="1" as="geometry" />
        </mxCell>
        <mxCell id="1c7a67bf8fd3230f-16" value="" style="shape=mxgraph.cisco.misc.route_switch_processor;html=1;dashed=0;fillColor=#036897;strokeColor=#ffffff;strokeWidth=2;verticalLabelPosition=bottom;verticalAlign=top;rounded=0;shadow=0;comic=0;fontFamily=Verdana;fontSize=12;" parent="1" vertex="1">
          <mxGeometry x="810" y="856" width="64" height="86" as="geometry" />
        </mxCell>
        <mxCell id="1c7a67bf8fd3230f-60" style="edgeStyle=none;html=1;labelBackgroundColor=none;startFill=0;endArrow=none;endFill=0;strokeWidth=2;fontFamily=Verdana;fontSize=12;" parent="1" source="1c7a67bf8fd3230f-17" target="1c7a67bf8fd3230f-24" edge="1">
          <mxGeometry relative="1" as="geometry" />
        </mxCell>
        <mxCell id="1c7a67bf8fd3230f-69" style="edgeStyle=none;html=1;labelBackgroundColor=none;startFill=0;endArrow=none;endFill=0;strokeWidth=2;fontFamily=Verdana;fontSize=12;" parent="1" source="1c7a67bf8fd3230f-17" target="1c7a67bf8fd3230f-22" edge="1">
          <mxGeometry relative="1" as="geometry" />
        </mxCell>
        <mxCell id="1c7a67bf8fd3230f-70" style="edgeStyle=none;html=1;labelBackgroundColor=none;startFill=0;endArrow=none;endFill=0;strokeWidth=2;fontFamily=Verdana;fontSize=12;" parent="1" source="1c7a67bf8fd3230f-17" target="1c7a67bf8fd3230f-23" edge="1">
          <mxGeometry relative="1" as="geometry" />
        </mxCell>
        <mxCell id="1c7a67bf8fd3230f-17" value="" style="shape=mxgraph.cisco.misc.route_switch_processor;html=1;dashed=0;fillColor=#036897;strokeColor=#ffffff;strokeWidth=2;verticalLabelPosition=bottom;verticalAlign=top;rounded=0;shadow=0;comic=0;fontFamily=Verdana;fontSize=12;" parent="1" vertex="1">
          <mxGeometry x="1150" y="856" width="64" height="86" as="geometry" />
        </mxCell>
        <mxCell id="1c7a67bf8fd3230f-59" style="edgeStyle=none;html=1;labelBackgroundColor=none;startFill=0;endArrow=none;endFill=0;strokeWidth=2;fontFamily=Verdana;fontSize=12;" parent="1" source="1c7a67bf8fd3230f-18" target="1c7a67bf8fd3230f-27" edge="1">
          <mxGeometry relative="1" as="geometry" />
        </mxCell>
        <mxCell id="1c7a67bf8fd3230f-18" value="" style="shape=mxgraph.cisco.misc.route_switch_processor;html=1;dashed=0;fillColor=#036897;strokeColor=#ffffff;strokeWidth=2;verticalLabelPosition=bottom;verticalAlign=top;rounded=0;shadow=0;comic=0;fontFamily=Verdana;fontSize=12;" parent="1" vertex="1">
          <mxGeometry x="1438" y="856" width="64" height="86" as="geometry" />
        </mxCell>
        <mxCell id="1c7a67bf8fd3230f-19" value="" style="shape=mxgraph.cisco.misc.me1100;html=1;dashed=0;fillColor=#036897;strokeColor=#ffffff;strokeWidth=2;verticalLabelPosition=bottom;verticalAlign=top;rounded=0;shadow=0;comic=0;fontFamily=Verdana;fontSize=12;" parent="1" vertex="1">
          <mxGeometry x="520" y="1016" width="91" height="48" as="geometry" />
        </mxCell>
        <mxCell id="1c7a67bf8fd3230f-20" value="" style="shape=mxgraph.cisco.storage.cisco_file_engine;html=1;dashed=0;fillColor=#036897;strokeColor=#ffffff;strokeWidth=2;verticalLabelPosition=bottom;verticalAlign=top;rounded=0;shadow=0;comic=0;fontFamily=Verdana;fontSize=12;" parent="1" vertex="1">
          <mxGeometry x="521" y="1116" width="90" height="64" as="geometry" />
        </mxCell>
        <mxCell id="1c7a67bf8fd3230f-67" style="edgeStyle=none;html=1;labelBackgroundColor=none;startFill=0;endArrow=none;endFill=0;strokeWidth=2;fontFamily=Verdana;fontSize=12;" parent="1" source="1c7a67bf8fd3230f-21" target="1c7a67bf8fd3230f-19" edge="1">
          <mxGeometry relative="1" as="geometry" />
        </mxCell>
        <mxCell id="1c7a67bf8fd3230f-68" style="edgeStyle=none;html=1;labelBackgroundColor=none;startFill=0;endArrow=none;endFill=0;strokeWidth=2;fontFamily=Verdana;fontSize=12;" parent="1" source="1c7a67bf8fd3230f-21" target="1c7a67bf8fd3230f-20" edge="1">
          <mxGeometry relative="1" as="geometry" />
        </mxCell>
        <mxCell id="1c7a67bf8fd3230f-78" style="edgeStyle=none;html=1;labelBackgroundColor=none;startFill=0;endArrow=none;endFill=0;strokeWidth=2;fontFamily=Verdana;fontSize=12;" parent="1" source="1c7a67bf8fd3230f-21" target="1c7a67bf8fd3230f-29" edge="1">
          <mxGeometry relative="1" as="geometry" />
        </mxCell>
        <mxCell id="1c7a67bf8fd3230f-79" style="edgeStyle=none;html=1;labelBackgroundColor=none;startFill=0;endArrow=none;endFill=0;strokeWidth=2;fontFamily=Verdana;fontSize=12;" parent="1" source="1c7a67bf8fd3230f-21" target="1c7a67bf8fd3230f-28" edge="1">
          <mxGeometry relative="1" as="geometry" />
        </mxCell>
        <mxCell id="1c7a67bf8fd3230f-21" value="" style="shape=mxgraph.cisco.misc.route_switch_processor;html=1;dashed=0;fillColor=#036897;strokeColor=#ffffff;strokeWidth=2;verticalLabelPosition=bottom;verticalAlign=top;rounded=0;shadow=0;comic=0;fontFamily=Verdana;fontSize=12;" parent="1" vertex="1">
          <mxGeometry x="764" y="997" width="64" height="86" as="geometry" />
        </mxCell>
        <mxCell id="1c7a67bf8fd3230f-22" value="" style="shape=mxgraph.cisco.misc.me1100;html=1;dashed=0;fillColor=#036897;strokeColor=#ffffff;strokeWidth=2;verticalLabelPosition=bottom;verticalAlign=top;rounded=0;shadow=0;comic=0;fontFamily=Verdana;fontSize=12;" parent="1" vertex="1">
          <mxGeometry x="930" y="1026" width="91" height="48" as="geometry" />
        </mxCell>
        <mxCell id="1c7a67bf8fd3230f-23" value="" style="shape=mxgraph.cisco.storage.cisco_file_engine;html=1;dashed=0;fillColor=#036897;strokeColor=#ffffff;strokeWidth=2;verticalLabelPosition=bottom;verticalAlign=top;rounded=0;shadow=0;comic=0;fontFamily=Verdana;fontSize=12;" parent="1" vertex="1">
          <mxGeometry x="931" y="1126" width="90" height="64" as="geometry" />
        </mxCell>
        <mxCell id="1c7a67bf8fd3230f-75" style="edgeStyle=none;html=1;labelBackgroundColor=none;startFill=0;endArrow=none;endFill=0;strokeWidth=2;fontFamily=Verdana;fontSize=12;" parent="1" source="1c7a67bf8fd3230f-24" target="1c7a67bf8fd3230f-33" edge="1">
          <mxGeometry relative="1" as="geometry" />
        </mxCell>
        <mxCell id="1c7a67bf8fd3230f-76" style="edgeStyle=none;html=1;labelBackgroundColor=none;startFill=0;endArrow=none;endFill=0;strokeWidth=2;fontFamily=Verdana;fontSize=12;" parent="1" source="1c7a67bf8fd3230f-24" target="1c7a67bf8fd3230f-32" edge="1">
          <mxGeometry relative="1" as="geometry" />
        </mxCell>
        <mxCell id="1c7a67bf8fd3230f-77" style="edgeStyle=none;html=1;labelBackgroundColor=none;startFill=0;endArrow=none;endFill=0;strokeWidth=2;fontFamily=Verdana;fontSize=12;" parent="1" source="1c7a67bf8fd3230f-24" target="1c7a67bf8fd3230f-31" edge="1">
          <mxGeometry relative="1" as="geometry" />
        </mxCell>
        <mxCell id="1c7a67bf8fd3230f-24" value="" style="shape=mxgraph.cisco.misc.route_switch_processor;html=1;dashed=0;fillColor=#036897;strokeColor=#ffffff;strokeWidth=2;verticalLabelPosition=bottom;verticalAlign=top;rounded=0;shadow=0;comic=0;fontFamily=Verdana;fontSize=12;" parent="1" vertex="1">
          <mxGeometry x="1174" y="1007" width="64" height="86" as="geometry" />
        </mxCell>
        <mxCell id="1c7a67bf8fd3230f-25" value="" style="shape=mxgraph.cisco.misc.me1100;html=1;dashed=0;fillColor=#036897;strokeColor=#ffffff;strokeWidth=2;verticalLabelPosition=bottom;verticalAlign=top;rounded=0;shadow=0;comic=0;fontFamily=Verdana;fontSize=12;" parent="1" vertex="1">
          <mxGeometry x="1392" y="1026" width="91" height="48" as="geometry" />
        </mxCell>
        <mxCell id="1c7a67bf8fd3230f-26" value="" style="shape=mxgraph.cisco.storage.cisco_file_engine;html=1;dashed=0;fillColor=#036897;strokeColor=#ffffff;strokeWidth=2;verticalLabelPosition=bottom;verticalAlign=top;rounded=0;shadow=0;comic=0;fontFamily=Verdana;fontSize=12;" parent="1" vertex="1">
          <mxGeometry x="1380" y="1136" width="90" height="64" as="geometry" />
        </mxCell>
        <mxCell id="1c7a67bf8fd3230f-71" style="edgeStyle=none;html=1;labelBackgroundColor=none;startFill=0;endArrow=none;endFill=0;strokeWidth=2;fontFamily=Verdana;fontSize=12;" parent="1" source="1c7a67bf8fd3230f-27" target="1c7a67bf8fd3230f-25" edge="1">
          <mxGeometry relative="1" as="geometry" />
        </mxCell>
        <mxCell id="1c7a67bf8fd3230f-72" style="edgeStyle=none;html=1;labelBackgroundColor=none;startFill=0;endArrow=none;endFill=0;strokeWidth=2;fontFamily=Verdana;fontSize=12;" parent="1" source="1c7a67bf8fd3230f-27" target="1c7a67bf8fd3230f-26" edge="1">
          <mxGeometry relative="1" as="geometry" />
        </mxCell>
        <mxCell id="1c7a67bf8fd3230f-73" style="edgeStyle=none;html=1;labelBackgroundColor=none;startFill=0;endArrow=none;endFill=0;strokeWidth=2;fontFamily=Verdana;fontSize=12;" parent="1" source="1c7a67bf8fd3230f-27" target="1c7a67bf8fd3230f-35" edge="1">
          <mxGeometry relative="1" as="geometry" />
        </mxCell>
        <mxCell id="1c7a67bf8fd3230f-74" style="edgeStyle=none;html=1;labelBackgroundColor=none;startFill=0;endArrow=none;endFill=0;strokeWidth=2;fontFamily=Verdana;fontSize=12;" parent="1" source="1c7a67bf8fd3230f-27" target="1c7a67bf8fd3230f-34" edge="1">
          <mxGeometry relative="1" as="geometry" />
        </mxCell>
        <mxCell id="1c7a67bf8fd3230f-27" value="" style="shape=mxgraph.cisco.misc.route_switch_processor;html=1;dashed=0;fillColor=#036897;strokeColor=#ffffff;strokeWidth=2;verticalLabelPosition=bottom;verticalAlign=top;rounded=0;shadow=0;comic=0;fontFamily=Verdana;fontSize=12;" parent="1" vertex="1">
          <mxGeometry x="1560" y="1007" width="64" height="86" as="geometry" />
        </mxCell>
        <mxCell id="1c7a67bf8fd3230f-28" value="" style="shape=mxgraph.cisco.misc.route_switch_processor;html=1;dashed=0;fillColor=#036897;strokeColor=#ffffff;strokeWidth=2;verticalLabelPosition=bottom;verticalAlign=top;rounded=0;shadow=0;comic=0;fontFamily=Verdana;fontSize=12;" parent="1" vertex="1">
          <mxGeometry x="678" y="1316" width="64" height="86" as="geometry" />
        </mxCell>
        <mxCell id="1c7a67bf8fd3230f-29" value="" style="shape=mxgraph.cisco.misc.route_switch_processor;html=1;dashed=0;fillColor=#036897;strokeColor=#ffffff;strokeWidth=2;verticalLabelPosition=bottom;verticalAlign=top;rounded=0;shadow=0;comic=0;fontFamily=Verdana;fontSize=12;" parent="1" vertex="1">
          <mxGeometry x="778" y="1316" width="64" height="86" as="geometry" />
        </mxCell>
        <mxCell id="1c7a67bf8fd3230f-31" value="" style="shape=mxgraph.cisco.misc.route_switch_processor;html=1;dashed=0;fillColor=#036897;strokeColor=#ffffff;strokeWidth=2;verticalLabelPosition=bottom;verticalAlign=top;rounded=0;shadow=0;comic=0;fontFamily=Verdana;fontSize=12;" parent="1" vertex="1">
          <mxGeometry x="1050" y="1316" width="64" height="86" as="geometry" />
        </mxCell>
        <mxCell id="1c7a67bf8fd3230f-32" value="" style="shape=mxgraph.cisco.misc.route_switch_processor;html=1;dashed=0;fillColor=#036897;strokeColor=#ffffff;strokeWidth=2;verticalLabelPosition=bottom;verticalAlign=top;rounded=0;shadow=0;comic=0;fontFamily=Verdana;fontSize=12;" parent="1" vertex="1">
          <mxGeometry x="1150" y="1316" width="64" height="86" as="geometry" />
        </mxCell>
        <mxCell id="1c7a67bf8fd3230f-33" value="" style="shape=mxgraph.cisco.misc.route_switch_processor;html=1;dashed=0;fillColor=#036897;strokeColor=#ffffff;strokeWidth=2;verticalLabelPosition=bottom;verticalAlign=top;rounded=0;shadow=0;comic=0;fontFamily=Verdana;fontSize=12;" parent="1" vertex="1">
          <mxGeometry x="1271" y="1316" width="64" height="86" as="geometry" />
        </mxCell>
        <mxCell id="1c7a67bf8fd3230f-34" value="" style="shape=mxgraph.cisco.misc.route_switch_processor;html=1;dashed=0;fillColor=#036897;strokeColor=#ffffff;strokeWidth=2;verticalLabelPosition=bottom;verticalAlign=top;rounded=0;shadow=0;comic=0;fontFamily=Verdana;fontSize=12;" parent="1" vertex="1">
          <mxGeometry x="1522" y="1316" width="64" height="86" as="geometry" />
        </mxCell>
        <mxCell id="1c7a67bf8fd3230f-35" value="" style="shape=mxgraph.cisco.misc.route_switch_processor;html=1;dashed=0;fillColor=#036897;strokeColor=#ffffff;strokeWidth=2;verticalLabelPosition=bottom;verticalAlign=top;rounded=0;shadow=0;comic=0;fontFamily=Verdana;fontSize=12;" parent="1" vertex="1">
          <mxGeometry x="1624" y="1316" width="64" height="86" as="geometry" />
        </mxCell>
        <mxCell id="1c7a67bf8fd3230f-55" style="edgeStyle=none;html=1;labelBackgroundColor=none;startFill=0;endArrow=none;endFill=0;strokeWidth=2;fontFamily=Verdana;fontSize=12;" parent="1" source="1c7a67bf8fd3230f-46" target="1c7a67bf8fd3230f-13" edge="1">
          <mxGeometry relative="1" as="geometry" />
        </mxCell>
        <mxCell id="1c7a67bf8fd3230f-46" value="" style="shape=mxgraph.cisco.routers.router;html=1;dashed=0;fillColor=#036897;strokeColor=#ffffff;strokeWidth=2;verticalLabelPosition=bottom;verticalAlign=top;rounded=0;shadow=0;comic=0;fontFamily=Verdana;fontSize=12;" parent="1" vertex="1">
          <mxGeometry x="880" y="626" width="78" height="53" as="geometry" />
        </mxCell>
        <mxCell id="1c7a67bf8fd3230f-54" style="edgeStyle=none;html=1;labelBackgroundColor=none;startFill=0;endArrow=none;endFill=0;strokeWidth=2;fontFamily=Verdana;fontSize=12;" parent="1" source="1c7a67bf8fd3230f-47" target="1c7a67bf8fd3230f-14" edge="1">
          <mxGeometry relative="1" as="geometry" />
        </mxCell>
        <mxCell id="1c7a67bf8fd3230f-47" value="" style="shape=mxgraph.cisco.routers.router;html=1;dashed=0;fillColor=#036897;strokeColor=#ffffff;strokeWidth=2;verticalLabelPosition=bottom;verticalAlign=top;rounded=0;shadow=0;comic=0;fontFamily=Verdana;fontSize=12;" parent="1" vertex="1">
          <mxGeometry x="1128" y="616" width="78" height="53" as="geometry" />
        </mxCell>
        <mxCell id="1c7a67bf8fd3230f-52" style="edgeStyle=none;html=1;labelBackgroundColor=none;startFill=0;endArrow=none;endFill=0;strokeWidth=2;fontFamily=Verdana;fontSize=12;" parent="1" source="1c7a67bf8fd3230f-48" target="1c7a67bf8fd3230f-15" edge="1">
          <mxGeometry relative="1" as="geometry" />
        </mxCell>
        <mxCell id="1c7a67bf8fd3230f-48" value="" style="shape=mxgraph.cisco.routers.router;html=1;dashed=0;fillColor=#036897;strokeColor=#ffffff;strokeWidth=2;verticalLabelPosition=bottom;verticalAlign=top;rounded=0;shadow=0;comic=0;fontFamily=Verdana;fontSize=12;" parent="1" vertex="1">
          <mxGeometry x="1412" y="619" width="78" height="53" as="geometry" />
        </mxCell>
      </root>
    </mxGraphModel>
  </diagram>
  <diagram id="1VnAuNcX4aS_3E-9IDf5" name="RED REDUNDANTE">
    <mxGraphModel dx="2021" dy="1935" grid="1" gridSize="10" guides="1" tooltips="1" connect="1" arrows="1" fold="1" page="1" pageScale="1" pageWidth="827" pageHeight="1169" math="0" shadow="0">
      <root>
        <mxCell id="0" />
        <mxCell id="1" parent="0" />
        <mxCell id="LfUGBNsnFYFduMRrhujY-30" value="" style="shape=ext;double=1;rounded=1;whiteSpace=wrap;html=1;fillColor=#fff2cc;strokeColor=#d6b656;" vertex="1" parent="1">
          <mxGeometry x="520" y="-180" width="470" height="240" as="geometry" />
        </mxCell>
        <mxCell id="LfUGBNsnFYFduMRrhujY-29" value="" style="shape=ext;double=1;rounded=1;whiteSpace=wrap;html=1;fillColor=#fff2cc;strokeColor=#d6b656;" vertex="1" parent="1">
          <mxGeometry x="-160" y="-170" width="630" height="350" as="geometry" />
        </mxCell>
        <mxCell id="LfUGBNsnFYFduMRrhujY-1" value="INTERNET" style="ellipse;shape=cloud;whiteSpace=wrap;html=1;" vertex="1" parent="1">
          <mxGeometry x="290" y="-640" width="266" height="120" as="geometry" />
        </mxCell>
        <mxCell id="LfUGBNsnFYFduMRrhujY-2" value="" style="shape=mxgraph.cisco.routers.router;sketch=0;html=1;pointerEvents=1;dashed=0;fillColor=#036897;strokeColor=#ffffff;strokeWidth=2;verticalLabelPosition=bottom;verticalAlign=top;align=center;outlineConnect=0;" vertex="1" parent="1">
          <mxGeometry x="240" y="-450" width="78" height="53" as="geometry" />
        </mxCell>
        <mxCell id="LfUGBNsnFYFduMRrhujY-3" value="" style="shape=mxgraph.cisco.routers.router;sketch=0;html=1;pointerEvents=1;dashed=0;fillColor=#036897;strokeColor=#ffffff;strokeWidth=2;verticalLabelPosition=bottom;verticalAlign=top;align=center;outlineConnect=0;" vertex="1" parent="1">
          <mxGeometry x="550" y="-450" width="78" height="53" as="geometry" />
        </mxCell>
        <mxCell id="LfUGBNsnFYFduMRrhujY-4" value="" style="shape=mxgraph.cisco.routers.router;sketch=0;html=1;pointerEvents=1;dashed=0;fillColor=#036897;strokeColor=#ffffff;strokeWidth=2;verticalLabelPosition=bottom;verticalAlign=top;align=center;outlineConnect=0;" vertex="1" parent="1">
          <mxGeometry x="162" y="-310" width="78" height="53" as="geometry" />
        </mxCell>
        <mxCell id="LfUGBNsnFYFduMRrhujY-5" value="" style="shape=mxgraph.cisco.routers.router;sketch=0;html=1;pointerEvents=1;dashed=0;fillColor=#036897;strokeColor=#ffffff;strokeWidth=2;verticalLabelPosition=bottom;verticalAlign=top;align=center;outlineConnect=0;" vertex="1" parent="1">
          <mxGeometry x="620" y="-310" width="78" height="53" as="geometry" />
        </mxCell>
        <mxCell id="LfUGBNsnFYFduMRrhujY-6" value="" style="shape=mxgraph.cisco.switches.workgroup_switch;sketch=0;html=1;pointerEvents=1;dashed=0;fillColor=#036897;strokeColor=#ffffff;strokeWidth=2;verticalLabelPosition=bottom;verticalAlign=top;align=center;outlineConnect=0;" vertex="1" parent="1">
          <mxGeometry x="151" y="-160" width="101" height="50" as="geometry" />
        </mxCell>
        <mxCell id="LfUGBNsnFYFduMRrhujY-7" value="" style="shape=mxgraph.cisco.switches.workgroup_switch;sketch=0;html=1;pointerEvents=1;dashed=0;fillColor=#036897;strokeColor=#ffffff;strokeWidth=2;verticalLabelPosition=bottom;verticalAlign=top;align=center;outlineConnect=0;" vertex="1" parent="1">
          <mxGeometry x="710" y="-160" width="101" height="50" as="geometry" />
        </mxCell>
        <mxCell id="LfUGBNsnFYFduMRrhujY-8" value="" style="shape=mxgraph.cisco.modems_and_phones.ip_phone;sketch=0;html=1;pointerEvents=1;dashed=0;fillColor=#036897;strokeColor=#ffffff;strokeWidth=2;verticalLabelPosition=bottom;verticalAlign=top;align=center;outlineConnect=0;" vertex="1" parent="1">
          <mxGeometry x="324" y="-100" width="90" height="50" as="geometry" />
        </mxCell>
        <mxCell id="LfUGBNsnFYFduMRrhujY-9" value="" style="shape=mxgraph.cisco.modems_and_phones.ip_phone;sketch=0;html=1;pointerEvents=1;dashed=0;fillColor=#036897;strokeColor=#ffffff;strokeWidth=2;verticalLabelPosition=bottom;verticalAlign=top;align=center;outlineConnect=0;" vertex="1" parent="1">
          <mxGeometry x="162" y="90" width="90" height="50" as="geometry" />
        </mxCell>
        <mxCell id="LfUGBNsnFYFduMRrhujY-10" value="" style="shape=mxgraph.cisco.modems_and_phones.ip_phone;sketch=0;html=1;pointerEvents=1;dashed=0;fillColor=#036897;strokeColor=#ffffff;strokeWidth=2;verticalLabelPosition=bottom;verticalAlign=top;align=center;outlineConnect=0;" vertex="1" parent="1">
          <mxGeometry x="234" y="10" width="90" height="50" as="geometry" />
        </mxCell>
        <mxCell id="LfUGBNsnFYFduMRrhujY-11" value="" style="shape=mxgraph.cisco.computers_and_peripherals.pc;sketch=0;html=1;pointerEvents=1;dashed=0;fillColor=#036897;strokeColor=#ffffff;strokeWidth=2;verticalLabelPosition=bottom;verticalAlign=top;align=center;outlineConnect=0;" vertex="1" parent="1">
          <mxGeometry x="-140" y="-110" width="78" height="70" as="geometry" />
        </mxCell>
        <mxCell id="LfUGBNsnFYFduMRrhujY-12" value="" style="shape=mxgraph.cisco.computers_and_peripherals.pc;sketch=0;html=1;pointerEvents=1;dashed=0;fillColor=#036897;strokeColor=#ffffff;strokeWidth=2;verticalLabelPosition=bottom;verticalAlign=top;align=center;outlineConnect=0;" vertex="1" parent="1">
          <mxGeometry x="-100" y="-10" width="78" height="70" as="geometry" />
        </mxCell>
        <mxCell id="LfUGBNsnFYFduMRrhujY-13" value="" style="shape=mxgraph.cisco.computers_and_peripherals.pc;sketch=0;html=1;pointerEvents=1;dashed=0;fillColor=#036897;strokeColor=#ffffff;strokeWidth=2;verticalLabelPosition=bottom;verticalAlign=top;align=center;outlineConnect=0;" vertex="1" parent="1">
          <mxGeometry x="-50" y="80" width="78" height="70" as="geometry" />
        </mxCell>
        <mxCell id="LfUGBNsnFYFduMRrhujY-14" value="" style="shape=mxgraph.cisco.computers_and_peripherals.pc;sketch=0;html=1;pointerEvents=1;dashed=0;fillColor=#036897;strokeColor=#ffffff;strokeWidth=2;verticalLabelPosition=bottom;verticalAlign=top;align=center;outlineConnect=0;" vertex="1" parent="1">
          <mxGeometry x="530.5" y="-30" width="78" height="70" as="geometry" />
        </mxCell>
        <mxCell id="LfUGBNsnFYFduMRrhujY-15" value="" style="shape=mxgraph.cisco.computers_and_peripherals.pc;sketch=0;html=1;pointerEvents=1;dashed=0;fillColor=#036897;strokeColor=#ffffff;strokeWidth=2;verticalLabelPosition=bottom;verticalAlign=top;align=center;outlineConnect=0;" vertex="1" parent="1">
          <mxGeometry x="680" y="-30" width="78" height="70" as="geometry" />
        </mxCell>
        <mxCell id="LfUGBNsnFYFduMRrhujY-16" value="" style="shape=mxgraph.cisco.computers_and_peripherals.pc;sketch=0;html=1;pointerEvents=1;dashed=0;fillColor=#036897;strokeColor=#ffffff;strokeWidth=2;verticalLabelPosition=bottom;verticalAlign=top;align=center;outlineConnect=0;" vertex="1" parent="1">
          <mxGeometry x="840" y="-40" width="78" height="70" as="geometry" />
        </mxCell>
        <mxCell id="LfUGBNsnFYFduMRrhujY-18" value="" style="endArrow=none;html=1;rounded=0;exitX=0.83;exitY=0.5;exitDx=0;exitDy=0;exitPerimeter=0;" edge="1" parent="1" source="LfUGBNsnFYFduMRrhujY-11" target="LfUGBNsnFYFduMRrhujY-6">
          <mxGeometry width="50" height="50" relative="1" as="geometry">
            <mxPoint x="390" y="190" as="sourcePoint" />
            <mxPoint x="440" y="140" as="targetPoint" />
          </mxGeometry>
        </mxCell>
        <mxCell id="LfUGBNsnFYFduMRrhujY-19" value="" style="endArrow=none;html=1;rounded=0;exitX=0.83;exitY=0.5;exitDx=0;exitDy=0;exitPerimeter=0;" edge="1" parent="1" source="LfUGBNsnFYFduMRrhujY-12" target="LfUGBNsnFYFduMRrhujY-6">
          <mxGeometry width="50" height="50" relative="1" as="geometry">
            <mxPoint x="-65" y="-65" as="sourcePoint" />
            <mxPoint x="161" y="-114" as="targetPoint" />
          </mxGeometry>
        </mxCell>
        <mxCell id="LfUGBNsnFYFduMRrhujY-20" value="" style="endArrow=none;html=1;rounded=0;entryX=0.5;entryY=0.98;entryDx=0;entryDy=0;entryPerimeter=0;" edge="1" parent="1" source="LfUGBNsnFYFduMRrhujY-13" target="LfUGBNsnFYFduMRrhujY-6">
          <mxGeometry width="50" height="50" relative="1" as="geometry">
            <mxPoint x="-55" y="-55" as="sourcePoint" />
            <mxPoint x="171" y="-104" as="targetPoint" />
          </mxGeometry>
        </mxCell>
        <mxCell id="LfUGBNsnFYFduMRrhujY-21" value="" style="endArrow=none;html=1;rounded=0;" edge="1" parent="1" source="LfUGBNsnFYFduMRrhujY-9" target="LfUGBNsnFYFduMRrhujY-6">
          <mxGeometry width="50" height="50" relative="1" as="geometry">
            <mxPoint x="-45" y="-45" as="sourcePoint" />
            <mxPoint x="181" y="-94" as="targetPoint" />
          </mxGeometry>
        </mxCell>
        <mxCell id="LfUGBNsnFYFduMRrhujY-22" value="" style="endArrow=none;html=1;rounded=0;exitX=0.42;exitY=0;exitDx=0;exitDy=0;exitPerimeter=0;entryX=0.87;entryY=0.74;entryDx=0;entryDy=0;entryPerimeter=0;" edge="1" parent="1" source="LfUGBNsnFYFduMRrhujY-10" target="LfUGBNsnFYFduMRrhujY-6">
          <mxGeometry width="50" height="50" relative="1" as="geometry">
            <mxPoint x="-35" y="-35" as="sourcePoint" />
            <mxPoint x="191" y="-84" as="targetPoint" />
          </mxGeometry>
        </mxCell>
        <mxCell id="LfUGBNsnFYFduMRrhujY-23" value="" style="endArrow=none;html=1;rounded=0;entryX=0.98;entryY=0.5;entryDx=0;entryDy=0;entryPerimeter=0;exitX=0.42;exitY=0;exitDx=0;exitDy=0;exitPerimeter=0;" edge="1" parent="1" source="LfUGBNsnFYFduMRrhujY-8" target="LfUGBNsnFYFduMRrhujY-6">
          <mxGeometry width="50" height="50" relative="1" as="geometry">
            <mxPoint x="-25" y="-25" as="sourcePoint" />
            <mxPoint x="201" y="-74" as="targetPoint" />
          </mxGeometry>
        </mxCell>
        <mxCell id="LfUGBNsnFYFduMRrhujY-24" value="" style="endArrow=none;html=1;rounded=0;exitX=0.5;exitY=0;exitDx=0;exitDy=0;exitPerimeter=0;entryX=0.5;entryY=1;entryDx=0;entryDy=0;entryPerimeter=0;" edge="1" parent="1" source="LfUGBNsnFYFduMRrhujY-6" target="LfUGBNsnFYFduMRrhujY-4">
          <mxGeometry width="50" height="50" relative="1" as="geometry">
            <mxPoint x="-15" y="-15" as="sourcePoint" />
            <mxPoint x="211" y="-64" as="targetPoint" />
          </mxGeometry>
        </mxCell>
        <mxCell id="LfUGBNsnFYFduMRrhujY-25" value="" style="endArrow=none;html=1;rounded=0;exitX=0.5;exitY=0;exitDx=0;exitDy=0;exitPerimeter=0;entryX=0;entryY=0.98;entryDx=0;entryDy=0;entryPerimeter=0;" edge="1" parent="1" source="LfUGBNsnFYFduMRrhujY-14" target="LfUGBNsnFYFduMRrhujY-7">
          <mxGeometry width="50" height="50" relative="1" as="geometry">
            <mxPoint x="-5" y="-5" as="sourcePoint" />
            <mxPoint x="680" y="-90" as="targetPoint" />
          </mxGeometry>
        </mxCell>
        <mxCell id="LfUGBNsnFYFduMRrhujY-26" value="" style="endArrow=none;html=1;rounded=0;entryX=0.5;entryY=0.98;entryDx=0;entryDy=0;entryPerimeter=0;" edge="1" parent="1" source="LfUGBNsnFYFduMRrhujY-15" target="LfUGBNsnFYFduMRrhujY-7">
          <mxGeometry width="50" height="50" relative="1" as="geometry">
            <mxPoint x="5" y="5" as="sourcePoint" />
            <mxPoint x="231" y="-44" as="targetPoint" />
          </mxGeometry>
        </mxCell>
        <mxCell id="LfUGBNsnFYFduMRrhujY-27" value="" style="endArrow=none;html=1;rounded=0;exitX=0.5;exitY=0;exitDx=0;exitDy=0;exitPerimeter=0;entryX=0.87;entryY=0.74;entryDx=0;entryDy=0;entryPerimeter=0;" edge="1" parent="1" source="LfUGBNsnFYFduMRrhujY-16" target="LfUGBNsnFYFduMRrhujY-7">
          <mxGeometry width="50" height="50" relative="1" as="geometry">
            <mxPoint x="15" y="15" as="sourcePoint" />
            <mxPoint x="241" y="-34" as="targetPoint" />
          </mxGeometry>
        </mxCell>
        <mxCell id="LfUGBNsnFYFduMRrhujY-28" value="" style="endArrow=none;html=1;rounded=0;exitX=0.5;exitY=0;exitDx=0;exitDy=0;exitPerimeter=0;entryX=0.88;entryY=0.9;entryDx=0;entryDy=0;entryPerimeter=0;" edge="1" parent="1" source="LfUGBNsnFYFduMRrhujY-7" target="LfUGBNsnFYFduMRrhujY-5">
          <mxGeometry width="50" height="50" relative="1" as="geometry">
            <mxPoint x="25" y="25" as="sourcePoint" />
            <mxPoint x="251" y="-24" as="targetPoint" />
          </mxGeometry>
        </mxCell>
        <mxCell id="LfUGBNsnFYFduMRrhujY-32" value="" style="endArrow=none;html=1;rounded=0;entryX=0.5;entryY=0;entryDx=0;entryDy=0;entryPerimeter=0;" edge="1" parent="1" source="LfUGBNsnFYFduMRrhujY-3" target="LfUGBNsnFYFduMRrhujY-5">
          <mxGeometry width="50" height="50" relative="1" as="geometry">
            <mxPoint x="35" y="35" as="sourcePoint" />
            <mxPoint x="261" y="-14" as="targetPoint" />
          </mxGeometry>
        </mxCell>
        <mxCell id="LfUGBNsnFYFduMRrhujY-33" value="" style="endArrow=none;html=1;rounded=0;exitX=1;exitY=0.5;exitDx=0;exitDy=0;exitPerimeter=0;strokeWidth=6;strokeColor=light-dark(#37ff00, #ededed);" edge="1" parent="1" source="LfUGBNsnFYFduMRrhujY-4" target="LfUGBNsnFYFduMRrhujY-3">
          <mxGeometry width="50" height="50" relative="1" as="geometry">
            <mxPoint x="45" y="45" as="sourcePoint" />
            <mxPoint x="271" y="-4" as="targetPoint" />
          </mxGeometry>
        </mxCell>
        <mxCell id="LfUGBNsnFYFduMRrhujY-34" value="" style="endArrow=none;html=1;rounded=0;exitX=0.5;exitY=0;exitDx=0;exitDy=0;exitPerimeter=0;strokeWidth=6;strokeColor=light-dark(#eb0505, #ededed);" edge="1" parent="1" source="LfUGBNsnFYFduMRrhujY-4" target="LfUGBNsnFYFduMRrhujY-2">
          <mxGeometry width="50" height="50" relative="1" as="geometry">
            <mxPoint x="55" y="55" as="sourcePoint" />
            <mxPoint x="281" y="6" as="targetPoint" />
          </mxGeometry>
        </mxCell>
        <mxCell id="LfUGBNsnFYFduMRrhujY-35" value="" style="endArrow=none;html=1;rounded=0;exitX=0.88;exitY=0.9;exitDx=0;exitDy=0;exitPerimeter=0;entryX=0;entryY=0.5;entryDx=0;entryDy=0;entryPerimeter=0;" edge="1" parent="1" source="LfUGBNsnFYFduMRrhujY-2" target="LfUGBNsnFYFduMRrhujY-5">
          <mxGeometry width="50" height="50" relative="1" as="geometry">
            <mxPoint x="65" y="65" as="sourcePoint" />
            <mxPoint x="291" y="16" as="targetPoint" />
          </mxGeometry>
        </mxCell>
        <mxCell id="LfUGBNsnFYFduMRrhujY-36" value="" style="endArrow=none;html=1;rounded=0;exitX=0.5;exitY=0;exitDx=0;exitDy=0;exitPerimeter=0;entryX=0.8;entryY=0.8;entryDx=0;entryDy=0;entryPerimeter=0;strokeWidth=6;strokeColor=light-dark(#04fa00, #ededed);" edge="1" parent="1" source="LfUGBNsnFYFduMRrhujY-3" target="LfUGBNsnFYFduMRrhujY-1">
          <mxGeometry width="50" height="50" relative="1" as="geometry">
            <mxPoint x="75" y="75" as="sourcePoint" />
            <mxPoint x="301" y="26" as="targetPoint" />
          </mxGeometry>
        </mxCell>
        <mxCell id="LfUGBNsnFYFduMRrhujY-37" value="" style="endArrow=none;html=1;rounded=0;exitX=0.5;exitY=0;exitDx=0;exitDy=0;exitPerimeter=0;entryX=0.31;entryY=0.8;entryDx=0;entryDy=0;entryPerimeter=0;fillColor=#f8cecc;strokeColor=light-dark(#ff0000, #ffb5b5);strokeWidth=6;" edge="1" parent="1" source="LfUGBNsnFYFduMRrhujY-2" target="LfUGBNsnFYFduMRrhujY-1">
          <mxGeometry width="50" height="50" relative="1" as="geometry">
            <mxPoint x="85" y="85" as="sourcePoint" />
            <mxPoint x="311" y="36" as="targetPoint" />
          </mxGeometry>
        </mxCell>
        <mxCell id="LfUGBNsnFYFduMRrhujY-38" value="" style="endArrow=classic;html=1;rounded=0;strokeColor=#33FF33;strokeWidth=4;exitX=1;exitY=1;exitDx=0;exitDy=0;exitPerimeter=0;" edge="1" parent="1" source="LfUGBNsnFYFduMRrhujY-40">
          <mxGeometry width="50" height="50" relative="1" as="geometry">
            <mxPoint x="-40" y="-460" as="sourcePoint" />
            <mxPoint x="350" y="-330" as="targetPoint" />
          </mxGeometry>
        </mxCell>
        <mxCell id="LfUGBNsnFYFduMRrhujY-39" value="" style="endArrow=classic;html=1;rounded=0;strokeWidth=4;strokeColor=light-dark(#fa0000, #ededed);exitX=0;exitY=0;exitDx=180;exitDy=30;exitPerimeter=0;" edge="1" parent="1" source="LfUGBNsnFYFduMRrhujY-40">
          <mxGeometry width="50" height="50" relative="1" as="geometry">
            <mxPoint x="-20" y="-530" as="sourcePoint" />
            <mxPoint x="320" y="-490" as="targetPoint" />
          </mxGeometry>
        </mxCell>
        <mxCell id="LfUGBNsnFYFduMRrhujY-40" value="Las conexiones redundantes permiten usar rutas alternativas cuando falla un dipositivo o un enlace.&lt;br&gt;La experiencia del usuario no se ve afectada." style="shape=note;whiteSpace=wrap;html=1;backgroundOutline=1;darkOpacity=0.05;align=left;" vertex="1" parent="1">
          <mxGeometry x="-490" y="-580" width="480" height="120" as="geometry" />
        </mxCell>
        <mxCell id="LfUGBNsnFYFduMRrhujY-41" value="&lt;font style=&quot;color: rgb(255, 5, 5);&quot; face=&quot;Comic Sans MS&quot;&gt;ENLACE CON FALLA&lt;/font&gt;" style="text;html=1;align=center;verticalAlign=middle;whiteSpace=wrap;rounded=0;" vertex="1" parent="1">
          <mxGeometry x="339" y="-500" width="60" height="30" as="geometry" />
        </mxCell>
        <mxCell id="LfUGBNsnFYFduMRrhujY-43" value="&lt;font style=&quot;color: rgb(33, 251, 4);&quot; face=&quot;Comic Sans MS&quot;&gt;RUTA ALTERNATIVA&lt;/font&gt;" style="text;html=1;align=center;verticalAlign=middle;whiteSpace=wrap;rounded=0;" vertex="1" parent="1">
          <mxGeometry x="600" y="-520" width="60" height="30" as="geometry" />
        </mxCell>
      </root>
    </mxGraphModel>
  </diagram>
  <diagram name="ESCALABILIDAD" id="ZiqJRxHn6W_tkOEMtGCj">
    <mxGraphModel dx="2021" dy="1935" grid="1" gridSize="10" guides="1" tooltips="1" connect="1" arrows="1" fold="1" page="1" pageScale="1" pageWidth="827" pageHeight="1169" math="0" shadow="0">
      <root>
        <mxCell id="h9qXzR-sJPEdCQUTvanL-0" />
        <mxCell id="h9qXzR-sJPEdCQUTvanL-1" parent="h9qXzR-sJPEdCQUTvanL-0" />
        <mxCell id="h9qXzR-sJPEdCQUTvanL-2" value="" style="shape=ext;double=1;rounded=1;whiteSpace=wrap;html=1;fillColor=#fff2cc;strokeColor=#d6b656;" vertex="1" parent="h9qXzR-sJPEdCQUTvanL-1">
          <mxGeometry x="520" y="-180" width="470" height="240" as="geometry" />
        </mxCell>
        <mxCell id="h9qXzR-sJPEdCQUTvanL-3" value="" style="shape=ext;double=1;rounded=1;whiteSpace=wrap;html=1;fillColor=#fff2cc;strokeColor=#d6b656;" vertex="1" parent="h9qXzR-sJPEdCQUTvanL-1">
          <mxGeometry x="-160" y="-170" width="630" height="350" as="geometry" />
        </mxCell>
        <mxCell id="h9qXzR-sJPEdCQUTvanL-4" value="INTERNET" style="ellipse;shape=cloud;whiteSpace=wrap;html=1;" vertex="1" parent="h9qXzR-sJPEdCQUTvanL-1">
          <mxGeometry x="290" y="-640" width="266" height="120" as="geometry" />
        </mxCell>
        <mxCell id="h9qXzR-sJPEdCQUTvanL-5" value="" style="shape=mxgraph.cisco.routers.router;sketch=0;html=1;pointerEvents=1;dashed=0;fillColor=#036897;strokeColor=#ffffff;strokeWidth=2;verticalLabelPosition=bottom;verticalAlign=top;align=center;outlineConnect=0;" vertex="1" parent="h9qXzR-sJPEdCQUTvanL-1">
          <mxGeometry x="240" y="-450" width="78" height="53" as="geometry" />
        </mxCell>
        <mxCell id="h9qXzR-sJPEdCQUTvanL-6" value="" style="shape=mxgraph.cisco.routers.router;sketch=0;html=1;pointerEvents=1;dashed=0;fillColor=#036897;strokeColor=#ffffff;strokeWidth=2;verticalLabelPosition=bottom;verticalAlign=top;align=center;outlineConnect=0;" vertex="1" parent="h9qXzR-sJPEdCQUTvanL-1">
          <mxGeometry x="550" y="-450" width="78" height="53" as="geometry" />
        </mxCell>
        <mxCell id="h9qXzR-sJPEdCQUTvanL-7" value="" style="shape=mxgraph.cisco.routers.router;sketch=0;html=1;pointerEvents=1;dashed=0;fillColor=#036897;strokeColor=#ffffff;strokeWidth=2;verticalLabelPosition=bottom;verticalAlign=top;align=center;outlineConnect=0;" vertex="1" parent="h9qXzR-sJPEdCQUTvanL-1">
          <mxGeometry x="162" y="-310" width="78" height="53" as="geometry" />
        </mxCell>
        <mxCell id="h9qXzR-sJPEdCQUTvanL-8" value="" style="shape=mxgraph.cisco.routers.router;sketch=0;html=1;pointerEvents=1;dashed=0;fillColor=#036897;strokeColor=#ffffff;strokeWidth=2;verticalLabelPosition=bottom;verticalAlign=top;align=center;outlineConnect=0;" vertex="1" parent="h9qXzR-sJPEdCQUTvanL-1">
          <mxGeometry x="620" y="-310" width="78" height="53" as="geometry" />
        </mxCell>
        <mxCell id="h9qXzR-sJPEdCQUTvanL-9" value="" style="shape=mxgraph.cisco.switches.workgroup_switch;sketch=0;html=1;pointerEvents=1;dashed=0;fillColor=#036897;strokeColor=#ffffff;strokeWidth=2;verticalLabelPosition=bottom;verticalAlign=top;align=center;outlineConnect=0;" vertex="1" parent="h9qXzR-sJPEdCQUTvanL-1">
          <mxGeometry x="151" y="-160" width="101" height="50" as="geometry" />
        </mxCell>
        <mxCell id="h9qXzR-sJPEdCQUTvanL-10" value="" style="shape=mxgraph.cisco.switches.workgroup_switch;sketch=0;html=1;pointerEvents=1;dashed=0;fillColor=#036897;strokeColor=#ffffff;strokeWidth=2;verticalLabelPosition=bottom;verticalAlign=top;align=center;outlineConnect=0;" vertex="1" parent="h9qXzR-sJPEdCQUTvanL-1">
          <mxGeometry x="710" y="-160" width="101" height="50" as="geometry" />
        </mxCell>
        <mxCell id="h9qXzR-sJPEdCQUTvanL-11" value="" style="shape=mxgraph.cisco.modems_and_phones.ip_phone;sketch=0;html=1;pointerEvents=1;dashed=0;fillColor=#036897;strokeColor=#ffffff;strokeWidth=2;verticalLabelPosition=bottom;verticalAlign=top;align=center;outlineConnect=0;" vertex="1" parent="h9qXzR-sJPEdCQUTvanL-1">
          <mxGeometry x="324" y="-100" width="90" height="50" as="geometry" />
        </mxCell>
        <mxCell id="h9qXzR-sJPEdCQUTvanL-12" value="" style="shape=mxgraph.cisco.modems_and_phones.ip_phone;sketch=0;html=1;pointerEvents=1;dashed=0;fillColor=#036897;strokeColor=#ffffff;strokeWidth=2;verticalLabelPosition=bottom;verticalAlign=top;align=center;outlineConnect=0;" vertex="1" parent="h9qXzR-sJPEdCQUTvanL-1">
          <mxGeometry x="162" y="90" width="90" height="50" as="geometry" />
        </mxCell>
        <mxCell id="h9qXzR-sJPEdCQUTvanL-13" value="" style="shape=mxgraph.cisco.modems_and_phones.ip_phone;sketch=0;html=1;pointerEvents=1;dashed=0;fillColor=#036897;strokeColor=#ffffff;strokeWidth=2;verticalLabelPosition=bottom;verticalAlign=top;align=center;outlineConnect=0;" vertex="1" parent="h9qXzR-sJPEdCQUTvanL-1">
          <mxGeometry x="234" y="10" width="90" height="50" as="geometry" />
        </mxCell>
        <mxCell id="h9qXzR-sJPEdCQUTvanL-14" value="" style="shape=mxgraph.cisco.computers_and_peripherals.pc;sketch=0;html=1;pointerEvents=1;dashed=0;fillColor=#036897;strokeColor=#ffffff;strokeWidth=2;verticalLabelPosition=bottom;verticalAlign=top;align=center;outlineConnect=0;" vertex="1" parent="h9qXzR-sJPEdCQUTvanL-1">
          <mxGeometry x="-140" y="-110" width="78" height="70" as="geometry" />
        </mxCell>
        <mxCell id="h9qXzR-sJPEdCQUTvanL-15" value="" style="shape=mxgraph.cisco.computers_and_peripherals.pc;sketch=0;html=1;pointerEvents=1;dashed=0;fillColor=#036897;strokeColor=#ffffff;strokeWidth=2;verticalLabelPosition=bottom;verticalAlign=top;align=center;outlineConnect=0;" vertex="1" parent="h9qXzR-sJPEdCQUTvanL-1">
          <mxGeometry x="-100" y="-10" width="78" height="70" as="geometry" />
        </mxCell>
        <mxCell id="h9qXzR-sJPEdCQUTvanL-16" value="" style="shape=mxgraph.cisco.computers_and_peripherals.pc;sketch=0;html=1;pointerEvents=1;dashed=0;fillColor=#036897;strokeColor=#ffffff;strokeWidth=2;verticalLabelPosition=bottom;verticalAlign=top;align=center;outlineConnect=0;" vertex="1" parent="h9qXzR-sJPEdCQUTvanL-1">
          <mxGeometry x="-50" y="80" width="78" height="70" as="geometry" />
        </mxCell>
        <mxCell id="h9qXzR-sJPEdCQUTvanL-17" value="" style="shape=mxgraph.cisco.computers_and_peripherals.pc;sketch=0;html=1;pointerEvents=1;dashed=0;fillColor=#036897;strokeColor=#ffffff;strokeWidth=2;verticalLabelPosition=bottom;verticalAlign=top;align=center;outlineConnect=0;" vertex="1" parent="h9qXzR-sJPEdCQUTvanL-1">
          <mxGeometry x="530.5" y="-30" width="78" height="70" as="geometry" />
        </mxCell>
        <mxCell id="h9qXzR-sJPEdCQUTvanL-18" value="" style="shape=mxgraph.cisco.computers_and_peripherals.pc;sketch=0;html=1;pointerEvents=1;dashed=0;fillColor=#036897;strokeColor=#ffffff;strokeWidth=2;verticalLabelPosition=bottom;verticalAlign=top;align=center;outlineConnect=0;" vertex="1" parent="h9qXzR-sJPEdCQUTvanL-1">
          <mxGeometry x="680" y="-30" width="78" height="70" as="geometry" />
        </mxCell>
        <mxCell id="h9qXzR-sJPEdCQUTvanL-19" value="" style="shape=mxgraph.cisco.computers_and_peripherals.pc;sketch=0;html=1;pointerEvents=1;dashed=0;fillColor=#036897;strokeColor=#ffffff;strokeWidth=2;verticalLabelPosition=bottom;verticalAlign=top;align=center;outlineConnect=0;" vertex="1" parent="h9qXzR-sJPEdCQUTvanL-1">
          <mxGeometry x="840" y="-40" width="78" height="70" as="geometry" />
        </mxCell>
        <mxCell id="h9qXzR-sJPEdCQUTvanL-20" value="" style="endArrow=none;html=1;rounded=0;exitX=0.83;exitY=0.5;exitDx=0;exitDy=0;exitPerimeter=0;" edge="1" parent="h9qXzR-sJPEdCQUTvanL-1" source="h9qXzR-sJPEdCQUTvanL-14" target="h9qXzR-sJPEdCQUTvanL-9">
          <mxGeometry width="50" height="50" relative="1" as="geometry">
            <mxPoint x="390" y="190" as="sourcePoint" />
            <mxPoint x="440" y="140" as="targetPoint" />
          </mxGeometry>
        </mxCell>
        <mxCell id="h9qXzR-sJPEdCQUTvanL-21" value="" style="endArrow=none;html=1;rounded=0;exitX=0.83;exitY=0.5;exitDx=0;exitDy=0;exitPerimeter=0;" edge="1" parent="h9qXzR-sJPEdCQUTvanL-1" source="h9qXzR-sJPEdCQUTvanL-15" target="h9qXzR-sJPEdCQUTvanL-9">
          <mxGeometry width="50" height="50" relative="1" as="geometry">
            <mxPoint x="-65" y="-65" as="sourcePoint" />
            <mxPoint x="161" y="-114" as="targetPoint" />
          </mxGeometry>
        </mxCell>
        <mxCell id="h9qXzR-sJPEdCQUTvanL-22" value="" style="endArrow=none;html=1;rounded=0;entryX=0.5;entryY=0.98;entryDx=0;entryDy=0;entryPerimeter=0;" edge="1" parent="h9qXzR-sJPEdCQUTvanL-1" source="h9qXzR-sJPEdCQUTvanL-16" target="h9qXzR-sJPEdCQUTvanL-9">
          <mxGeometry width="50" height="50" relative="1" as="geometry">
            <mxPoint x="-55" y="-55" as="sourcePoint" />
            <mxPoint x="171" y="-104" as="targetPoint" />
          </mxGeometry>
        </mxCell>
        <mxCell id="h9qXzR-sJPEdCQUTvanL-23" value="" style="endArrow=none;html=1;rounded=0;" edge="1" parent="h9qXzR-sJPEdCQUTvanL-1" source="h9qXzR-sJPEdCQUTvanL-12" target="h9qXzR-sJPEdCQUTvanL-9">
          <mxGeometry width="50" height="50" relative="1" as="geometry">
            <mxPoint x="-45" y="-45" as="sourcePoint" />
            <mxPoint x="181" y="-94" as="targetPoint" />
          </mxGeometry>
        </mxCell>
        <mxCell id="h9qXzR-sJPEdCQUTvanL-24" value="" style="endArrow=none;html=1;rounded=0;exitX=0.42;exitY=0;exitDx=0;exitDy=0;exitPerimeter=0;entryX=0.87;entryY=0.74;entryDx=0;entryDy=0;entryPerimeter=0;" edge="1" parent="h9qXzR-sJPEdCQUTvanL-1" source="h9qXzR-sJPEdCQUTvanL-13" target="h9qXzR-sJPEdCQUTvanL-9">
          <mxGeometry width="50" height="50" relative="1" as="geometry">
            <mxPoint x="-35" y="-35" as="sourcePoint" />
            <mxPoint x="191" y="-84" as="targetPoint" />
          </mxGeometry>
        </mxCell>
        <mxCell id="h9qXzR-sJPEdCQUTvanL-25" value="" style="endArrow=none;html=1;rounded=0;entryX=0.98;entryY=0.5;entryDx=0;entryDy=0;entryPerimeter=0;exitX=0.42;exitY=0;exitDx=0;exitDy=0;exitPerimeter=0;" edge="1" parent="h9qXzR-sJPEdCQUTvanL-1" source="h9qXzR-sJPEdCQUTvanL-11" target="h9qXzR-sJPEdCQUTvanL-9">
          <mxGeometry width="50" height="50" relative="1" as="geometry">
            <mxPoint x="-25" y="-25" as="sourcePoint" />
            <mxPoint x="201" y="-74" as="targetPoint" />
          </mxGeometry>
        </mxCell>
        <mxCell id="h9qXzR-sJPEdCQUTvanL-26" value="" style="endArrow=none;html=1;rounded=0;exitX=0.5;exitY=0;exitDx=0;exitDy=0;exitPerimeter=0;entryX=0.5;entryY=1;entryDx=0;entryDy=0;entryPerimeter=0;" edge="1" parent="h9qXzR-sJPEdCQUTvanL-1" source="h9qXzR-sJPEdCQUTvanL-9" target="h9qXzR-sJPEdCQUTvanL-7">
          <mxGeometry width="50" height="50" relative="1" as="geometry">
            <mxPoint x="-15" y="-15" as="sourcePoint" />
            <mxPoint x="211" y="-64" as="targetPoint" />
          </mxGeometry>
        </mxCell>
        <mxCell id="h9qXzR-sJPEdCQUTvanL-27" value="" style="endArrow=none;html=1;rounded=0;exitX=0.5;exitY=0;exitDx=0;exitDy=0;exitPerimeter=0;entryX=0;entryY=0.98;entryDx=0;entryDy=0;entryPerimeter=0;" edge="1" parent="h9qXzR-sJPEdCQUTvanL-1" source="h9qXzR-sJPEdCQUTvanL-17" target="h9qXzR-sJPEdCQUTvanL-10">
          <mxGeometry width="50" height="50" relative="1" as="geometry">
            <mxPoint x="-5" y="-5" as="sourcePoint" />
            <mxPoint x="680" y="-90" as="targetPoint" />
          </mxGeometry>
        </mxCell>
        <mxCell id="h9qXzR-sJPEdCQUTvanL-28" value="" style="endArrow=none;html=1;rounded=0;entryX=0.5;entryY=0.98;entryDx=0;entryDy=0;entryPerimeter=0;" edge="1" parent="h9qXzR-sJPEdCQUTvanL-1" source="h9qXzR-sJPEdCQUTvanL-18" target="h9qXzR-sJPEdCQUTvanL-10">
          <mxGeometry width="50" height="50" relative="1" as="geometry">
            <mxPoint x="5" y="5" as="sourcePoint" />
            <mxPoint x="231" y="-44" as="targetPoint" />
          </mxGeometry>
        </mxCell>
        <mxCell id="h9qXzR-sJPEdCQUTvanL-29" value="" style="endArrow=none;html=1;rounded=0;exitX=0.5;exitY=0;exitDx=0;exitDy=0;exitPerimeter=0;entryX=0.87;entryY=0.74;entryDx=0;entryDy=0;entryPerimeter=0;" edge="1" parent="h9qXzR-sJPEdCQUTvanL-1" source="h9qXzR-sJPEdCQUTvanL-19" target="h9qXzR-sJPEdCQUTvanL-10">
          <mxGeometry width="50" height="50" relative="1" as="geometry">
            <mxPoint x="15" y="15" as="sourcePoint" />
            <mxPoint x="241" y="-34" as="targetPoint" />
          </mxGeometry>
        </mxCell>
        <mxCell id="h9qXzR-sJPEdCQUTvanL-30" value="" style="endArrow=none;html=1;rounded=0;exitX=0.5;exitY=0;exitDx=0;exitDy=0;exitPerimeter=0;entryX=0.88;entryY=0.9;entryDx=0;entryDy=0;entryPerimeter=0;" edge="1" parent="h9qXzR-sJPEdCQUTvanL-1" source="h9qXzR-sJPEdCQUTvanL-10" target="h9qXzR-sJPEdCQUTvanL-8">
          <mxGeometry width="50" height="50" relative="1" as="geometry">
            <mxPoint x="25" y="25" as="sourcePoint" />
            <mxPoint x="251" y="-24" as="targetPoint" />
          </mxGeometry>
        </mxCell>
        <mxCell id="h9qXzR-sJPEdCQUTvanL-31" value="" style="endArrow=none;html=1;rounded=0;entryX=0.5;entryY=0;entryDx=0;entryDy=0;entryPerimeter=0;" edge="1" parent="h9qXzR-sJPEdCQUTvanL-1" source="h9qXzR-sJPEdCQUTvanL-6" target="h9qXzR-sJPEdCQUTvanL-8">
          <mxGeometry width="50" height="50" relative="1" as="geometry">
            <mxPoint x="35" y="35" as="sourcePoint" />
            <mxPoint x="261" y="-14" as="targetPoint" />
          </mxGeometry>
        </mxCell>
        <mxCell id="h9qXzR-sJPEdCQUTvanL-32" value="" style="endArrow=none;html=1;rounded=0;exitX=1;exitY=0.5;exitDx=0;exitDy=0;exitPerimeter=0;strokeWidth=1;strokeColor=light-dark(#000000,#EDEDED);" edge="1" parent="h9qXzR-sJPEdCQUTvanL-1" source="h9qXzR-sJPEdCQUTvanL-7" target="h9qXzR-sJPEdCQUTvanL-6">
          <mxGeometry width="50" height="50" relative="1" as="geometry">
            <mxPoint x="45" y="45" as="sourcePoint" />
            <mxPoint x="271" y="-4" as="targetPoint" />
          </mxGeometry>
        </mxCell>
        <mxCell id="h9qXzR-sJPEdCQUTvanL-33" value="" style="endArrow=none;html=1;rounded=0;exitX=0.5;exitY=0;exitDx=0;exitDy=0;exitPerimeter=0;strokeWidth=1;strokeColor=light-dark(#080808, #ededed);" edge="1" parent="h9qXzR-sJPEdCQUTvanL-1" source="h9qXzR-sJPEdCQUTvanL-7" target="h9qXzR-sJPEdCQUTvanL-5">
          <mxGeometry width="50" height="50" relative="1" as="geometry">
            <mxPoint x="55" y="55" as="sourcePoint" />
            <mxPoint x="281" y="6" as="targetPoint" />
          </mxGeometry>
        </mxCell>
        <mxCell id="h9qXzR-sJPEdCQUTvanL-34" value="" style="endArrow=none;html=1;rounded=0;exitX=0.88;exitY=0.9;exitDx=0;exitDy=0;exitPerimeter=0;entryX=0;entryY=0.5;entryDx=0;entryDy=0;entryPerimeter=0;" edge="1" parent="h9qXzR-sJPEdCQUTvanL-1" source="h9qXzR-sJPEdCQUTvanL-5" target="h9qXzR-sJPEdCQUTvanL-8">
          <mxGeometry width="50" height="50" relative="1" as="geometry">
            <mxPoint x="65" y="65" as="sourcePoint" />
            <mxPoint x="291" y="16" as="targetPoint" />
          </mxGeometry>
        </mxCell>
        <mxCell id="h9qXzR-sJPEdCQUTvanL-35" value="" style="endArrow=none;html=1;rounded=0;exitX=0.5;exitY=0;exitDx=0;exitDy=0;exitPerimeter=0;entryX=0.8;entryY=0.8;entryDx=0;entryDy=0;entryPerimeter=0;strokeWidth=1;strokeColor=light-dark(#030303, #ededed);" edge="1" parent="h9qXzR-sJPEdCQUTvanL-1" source="h9qXzR-sJPEdCQUTvanL-6" target="h9qXzR-sJPEdCQUTvanL-4">
          <mxGeometry width="50" height="50" relative="1" as="geometry">
            <mxPoint x="75" y="75" as="sourcePoint" />
            <mxPoint x="301" y="26" as="targetPoint" />
          </mxGeometry>
        </mxCell>
        <mxCell id="h9qXzR-sJPEdCQUTvanL-36" value="" style="endArrow=none;html=1;rounded=0;exitX=0.5;exitY=0;exitDx=0;exitDy=0;exitPerimeter=0;entryX=0.31;entryY=0.8;entryDx=0;entryDy=0;entryPerimeter=0;fillColor=#f8cecc;strokeColor=light-dark(#050505, #ffb5b5);strokeWidth=1;" edge="1" parent="h9qXzR-sJPEdCQUTvanL-1" source="h9qXzR-sJPEdCQUTvanL-5" target="h9qXzR-sJPEdCQUTvanL-4">
          <mxGeometry width="50" height="50" relative="1" as="geometry">
            <mxPoint x="85" y="85" as="sourcePoint" />
            <mxPoint x="311" y="36" as="targetPoint" />
          </mxGeometry>
        </mxCell>
        <mxCell id="AeyvdFBH_Y-J1MmGw85P-0" value="" style="shape=ext;double=1;rounded=1;whiteSpace=wrap;html=1;fillColor=#dae8fc;strokeColor=#6c8ebf;" vertex="1" parent="h9qXzR-sJPEdCQUTvanL-1">
          <mxGeometry x="1150" y="-180" width="470" height="240" as="geometry" />
        </mxCell>
        <mxCell id="AeyvdFBH_Y-J1MmGw85P-1" value="" style="shape=mxgraph.cisco.switches.workgroup_switch;sketch=0;html=1;pointerEvents=1;dashed=0;fillColor=#dae8fc;strokeColor=#6c8ebf;strokeWidth=2;verticalLabelPosition=bottom;verticalAlign=top;align=center;outlineConnect=0;" vertex="1" parent="h9qXzR-sJPEdCQUTvanL-1">
          <mxGeometry x="1340" y="-160" width="101" height="50" as="geometry" />
        </mxCell>
        <mxCell id="AeyvdFBH_Y-J1MmGw85P-2" value="" style="shape=mxgraph.cisco.computers_and_peripherals.pc;sketch=0;html=1;pointerEvents=1;dashed=0;fillColor=#dae8fc;strokeColor=#6c8ebf;strokeWidth=2;verticalLabelPosition=bottom;verticalAlign=top;align=center;outlineConnect=0;" vertex="1" parent="h9qXzR-sJPEdCQUTvanL-1">
          <mxGeometry x="1160.5" y="-30" width="78" height="70" as="geometry" />
        </mxCell>
        <mxCell id="AeyvdFBH_Y-J1MmGw85P-3" value="" style="shape=mxgraph.cisco.computers_and_peripherals.pc;sketch=0;html=1;pointerEvents=1;dashed=0;fillColor=#dae8fc;strokeColor=#6c8ebf;strokeWidth=2;verticalLabelPosition=bottom;verticalAlign=top;align=center;outlineConnect=0;" vertex="1" parent="h9qXzR-sJPEdCQUTvanL-1">
          <mxGeometry x="1310" y="-30" width="78" height="70" as="geometry" />
        </mxCell>
        <mxCell id="AeyvdFBH_Y-J1MmGw85P-4" value="" style="shape=mxgraph.cisco.computers_and_peripherals.pc;sketch=0;html=1;pointerEvents=1;dashed=0;fillColor=#dae8fc;strokeColor=#6c8ebf;strokeWidth=2;verticalLabelPosition=bottom;verticalAlign=top;align=center;outlineConnect=0;" vertex="1" parent="h9qXzR-sJPEdCQUTvanL-1">
          <mxGeometry x="1470" y="-40" width="78" height="70" as="geometry" />
        </mxCell>
        <mxCell id="AeyvdFBH_Y-J1MmGw85P-5" value="" style="endArrow=none;html=1;rounded=0;exitX=0.5;exitY=0;exitDx=0;exitDy=0;exitPerimeter=0;entryX=0;entryY=0.98;entryDx=0;entryDy=0;entryPerimeter=0;fillColor=#dae8fc;strokeColor=#6c8ebf;" edge="1" parent="h9qXzR-sJPEdCQUTvanL-1" source="AeyvdFBH_Y-J1MmGw85P-2" target="AeyvdFBH_Y-J1MmGw85P-1">
          <mxGeometry width="50" height="50" relative="1" as="geometry">
            <mxPoint x="625" y="-5" as="sourcePoint" />
            <mxPoint x="1310" y="-90" as="targetPoint" />
          </mxGeometry>
        </mxCell>
        <mxCell id="AeyvdFBH_Y-J1MmGw85P-6" value="" style="endArrow=none;html=1;rounded=0;entryX=0.5;entryY=0.98;entryDx=0;entryDy=0;entryPerimeter=0;fillColor=#dae8fc;strokeColor=#6c8ebf;" edge="1" parent="h9qXzR-sJPEdCQUTvanL-1" source="AeyvdFBH_Y-J1MmGw85P-3" target="AeyvdFBH_Y-J1MmGw85P-1">
          <mxGeometry width="50" height="50" relative="1" as="geometry">
            <mxPoint x="635" y="5" as="sourcePoint" />
            <mxPoint x="861" y="-44" as="targetPoint" />
          </mxGeometry>
        </mxCell>
        <mxCell id="AeyvdFBH_Y-J1MmGw85P-7" value="" style="endArrow=none;html=1;rounded=0;exitX=0.5;exitY=0;exitDx=0;exitDy=0;exitPerimeter=0;entryX=0.87;entryY=0.74;entryDx=0;entryDy=0;entryPerimeter=0;fillColor=#dae8fc;strokeColor=#6c8ebf;" edge="1" parent="h9qXzR-sJPEdCQUTvanL-1" source="AeyvdFBH_Y-J1MmGw85P-4" target="AeyvdFBH_Y-J1MmGw85P-1">
          <mxGeometry width="50" height="50" relative="1" as="geometry">
            <mxPoint x="645" y="15" as="sourcePoint" />
            <mxPoint x="871" y="-34" as="targetPoint" />
          </mxGeometry>
        </mxCell>
        <mxCell id="AeyvdFBH_Y-J1MmGw85P-8" value="" style="endArrow=none;html=1;rounded=0;exitX=1;exitY=0.5;exitDx=0;exitDy=0;exitPerimeter=0;" edge="1" parent="h9qXzR-sJPEdCQUTvanL-1" source="h9qXzR-sJPEdCQUTvanL-8" target="AeyvdFBH_Y-J1MmGw85P-1">
          <mxGeometry width="50" height="50" relative="1" as="geometry">
            <mxPoint x="990" y="-220" as="sourcePoint" />
            <mxPoint x="1040" y="-270" as="targetPoint" />
          </mxGeometry>
        </mxCell>
        <mxCell id="AeyvdFBH_Y-J1MmGw85P-9" value="Se pueden conectar a internet redes enteras sin degradar el rendimiento" style="shape=note;whiteSpace=wrap;html=1;backgroundOutline=1;darkOpacity=0.05;fillColor=#dae8fc;strokeColor=#6c8ebf;" vertex="1" parent="h9qXzR-sJPEdCQUTvanL-1">
          <mxGeometry x="1241" y="70" width="240" height="110" as="geometry" />
        </mxCell>
      </root>
    </mxGraphModel>
  </diagram>
</mxfile>
